<svg width="16" height="15" viewBox="0 0 16 15" fill="none" xmlns="http://www.w3.org/2000/svg">
<path d="M0.597605 0.0651956C0.378041 0.147227 0.152292 0.361094 0.0687962 0.574961C-0.0177924 0.794688 -0.0177924 1.08766 0.0687962 1.31324C0.130645 1.47438 0.27599 1.61793 3.30968 4.49195L6.48253 7.50367L3.30968 10.5154C0.27599 13.3894 0.130645 13.533 0.0687962 13.6941C-0.12912 14.2039 0.115183 14.7693 0.606882 14.9421C0.838816 15.0242 1.14806 15.0242 1.38618 14.9421C1.55626 14.8836 1.70779 14.7459 4.74458 11.8718L7.92052 8.86598L11.0996 11.8718C14.1332 14.7459 14.2848 14.8836 14.4549 14.9421C14.9929 15.1296 15.5898 14.8982 15.7722 14.4324C15.8588 14.2127 15.8588 13.9197 15.7722 13.6941C15.7104 13.533 15.5651 13.3894 12.5314 10.5154L9.35851 7.50367L12.5314 4.49195C15.5651 1.61793 15.7104 1.47438 15.7722 1.31324C15.8588 1.08766 15.8588 0.794688 15.7722 0.574961C15.5898 0.109141 14.9929 -0.122304 14.4549 0.0651956C14.2848 0.123789 14.1332 0.261485 11.0996 3.13551L7.92052 6.14137L4.74458 3.13551C1.70779 0.261485 1.55626 0.123789 1.38618 0.0651956C1.15115 -0.0168357 0.823353 -0.0168357 0.597605 0.0651956Z" fill="white"/>
</svg>
