<svg width="35" height="35" viewBox="0 0 35 35" fill="none" xmlns="http://www.w3.org/2000/svg">
<path d="M17.5002 11.5211C16.3177 11.5211 15.1617 11.8718 14.1784 12.5288C13.1952 13.1858 12.4288 14.1196 11.9762 15.2121C11.5237 16.3047 11.4053 17.507 11.636 18.6668C11.8667 19.8266 12.4362 20.892 13.2724 21.7282C14.1086 22.5643 15.1739 23.1338 16.3337 23.3645C17.4937 23.5952 18.6958 23.4768 19.7884 23.0243C20.881 22.5717 21.8147 21.8054 22.4717 20.8222C23.1288 19.8388 23.4794 18.6828 23.4794 17.5002C23.4813 16.7145 23.328 15.9362 23.0282 15.2099C22.7284 14.4836 22.2881 13.8237 21.7325 13.2681C21.1768 12.7125 20.517 12.2721 19.7907 11.9723C19.0643 11.6725 18.286 11.5192 17.5002 11.5211ZM17.5002 21.394C16.7301 21.394 15.9773 21.1656 15.337 20.7377C14.6967 20.31 14.1976 19.7019 13.9029 18.9904C13.6082 18.2789 13.5311 17.496 13.6813 16.7406C13.8316 15.9853 14.2024 15.2915 14.7469 14.7469C15.2915 14.2024 15.9853 13.8316 16.7406 13.6813C17.496 13.5311 18.2788 13.6082 18.9904 13.9029C19.7019 14.1976 20.31 14.6967 20.7377 15.337C21.1656 15.9773 21.394 16.7301 21.394 17.5002C21.394 18.5329 20.9838 19.5234 20.2536 20.2536C19.5234 20.9838 18.5329 21.394 17.5002 21.394ZM25.1273 11.2732C25.1273 11.5616 25.0419 11.8436 24.8816 12.0834C24.7213 12.3232 24.4935 12.5101 24.2271 12.6205C23.9607 12.7309 23.6674 12.7598 23.3845 12.7035C23.1016 12.6472 22.8418 12.5083 22.6378 12.3044C22.4339 12.1004 22.295 11.8406 22.2387 11.5577C22.1824 11.2748 22.2112 10.9816 22.3216 10.7151C22.432 10.4486 22.619 10.2209 22.8587 10.0606C23.0986 9.90038 23.3805 9.81484 23.669 9.81484C24.0557 9.81484 24.4267 9.96849 24.7002 10.242C24.9738 10.5155 25.1273 10.8864 25.1273 11.2732ZM29.0794 12.7315C29.1218 10.9186 28.4456 9.16239 27.1982 7.84609C25.8889 6.58273 24.1319 5.89041 22.3127 5.92109C20.4169 5.83359 14.5836 5.83359 12.6878 5.92109C10.8754 5.88185 9.12036 6.55767 7.80234 7.80234C6.55494 9.11864 5.87869 10.8748 5.92109 12.6878C5.83359 14.5836 5.83359 20.4169 5.92109 22.3127C5.87869 24.1257 6.55494 25.8819 7.80234 27.1982C9.12036 28.4429 10.8754 29.1186 12.6878 29.0794C14.6127 29.1961 20.3877 29.1961 22.3127 29.0794C24.1257 29.1219 25.8819 28.4456 27.1982 27.1982C28.4456 25.8819 29.1218 24.1257 29.0794 22.3127C29.1669 20.4169 29.1669 14.5836 29.0794 12.6878V12.7315ZM26.6002 24.3982C26.4022 24.8998 26.1034 25.3553 25.722 25.7366C25.3407 26.118 24.8852 26.4168 24.3836 26.6148C22.1197 27.0726 19.8053 27.2295 17.5002 27.0815C15.2002 27.2297 12.8905 27.0727 10.6315 26.6148C10.1299 26.4168 9.67438 26.118 9.29308 25.7366C8.91177 25.3553 8.61286 24.8998 8.41484 24.3982C7.80234 22.8523 7.93359 19.2065 7.93359 17.5148C7.93359 15.8232 7.80234 12.1628 8.41484 10.6315C8.60727 10.125 8.90406 9.66459 9.28594 9.28019C9.66781 8.8958 10.1263 8.596 10.6315 8.40026C12.8905 7.94231 15.2002 7.7854 17.5002 7.93359C19.8053 7.78565 22.1197 7.94256 24.3836 8.40026C24.8852 8.59827 25.3407 8.89719 25.722 9.2785C26.1034 9.65979 26.4022 10.1154 26.6002 10.6169C27.2127 12.1628 27.0669 15.8086 27.0669 17.5002C27.0669 19.1919 27.2127 22.8523 26.6002 24.3836V24.3982Z" fill="white"/>
</svg>
