<svg width="17" height="24" viewBox="0 0 17 24" fill="none" xmlns="http://www.w3.org/2000/svg">
<path d="M7.60869 0.00980607C6.44793 0.225595 5.86754 0.432001 5.06429 0.929254C3.58315 1.84401 2.51525 3.3733 2.12059 5.13244C2.02773 5.55464 2.01844 5.73759 2.00451 7.80166L1.98594 10.0205L1.7445 10.0909C1.02482 10.302 0.421225 10.8978 0.142641 11.6671L0.0172785 12.0142L0.00334932 16.8226C-0.00593681 20.2001 0.00334932 21.72 0.0404939 21.9358C0.128712 22.4425 0.360865 22.8834 0.750883 23.2681C0.936606 23.451 1.19197 23.6574 1.32198 23.7278C1.84665 24.014 1.51235 23.9999 8.44444 23.9999C15.3765 23.9999 15.0422 24.014 15.5669 23.7278C15.6969 23.6574 15.9523 23.451 16.138 23.2681C16.528 22.8834 16.7602 22.4425 16.8484 21.9358C16.8855 21.72 16.8948 20.2001 16.8855 16.8226L16.8716 12.0142L16.7462 11.6671C16.4677 10.8978 15.8641 10.302 15.1444 10.0909L14.903 10.0205L14.8844 7.80166C14.8704 5.73759 14.8612 5.55464 14.7683 5.13244C14.2669 2.87604 12.665 1.04653 10.557 0.319416C9.84201 0.0754809 9.51699 0.0191882 8.58374 0.00511501C8.11014 -0.00426711 7.6737 0.000423949 7.60869 0.00980607ZM9.49842 3.18565C10.0509 3.37799 10.4317 3.62192 10.8635 4.05819C11.2999 4.49915 11.5182 4.85098 11.7271 5.44674L11.8571 5.82203L11.871 7.89548L11.885 9.97362H8.44444H5.00393L5.01786 7.89548L5.03179 5.82203L5.1618 5.44674C5.37073 4.85098 5.58896 4.49915 6.02541 4.05819C6.44328 3.636 6.82866 3.38268 7.31618 3.20911C7.75263 3.059 7.92442 3.03554 8.56052 3.04961C9.05733 3.06369 9.22448 3.08714 9.49842 3.18565ZM9.01554 13.0932C9.95344 13.3418 10.7056 14.1627 10.8635 15.1197C11.0121 16.0251 10.5478 17.0477 9.75379 17.5591C9.52628 17.7092 9.51235 17.7279 9.53557 17.8687C9.61914 18.3612 9.8838 20.3362 9.8838 20.4816C9.8838 20.7068 9.7445 20.885 9.52164 20.9507C9.29877 21.0117 7.59012 21.0117 7.36725 20.9507C7.14439 20.885 7.00509 20.7068 7.00509 20.4816C7.00509 20.3362 7.26975 18.3612 7.35332 17.8687C7.37654 17.7279 7.36261 17.7092 7.1351 17.5591C6.34114 17.0477 5.87683 16.0251 6.02541 15.1197C6.17863 14.1768 6.92616 13.3465 7.85478 13.0932C8.17515 13.0087 8.68588 13.004 9.01554 13.0932Z" fill="white"/>
</svg>
